<?xml version="1.0" encoding="utf-8"?>
<!-- Generator: Adobe Illustrator 28.2.0, SVG Export Plug-In . SVG Version: 6.00 Build 0)  -->
<svg version="1.1" id="Layer_1" xmlns="http://www.w3.org/2000/svg" xmlns:xlink="http://www.w3.org/1999/xlink" x="0px" y="0px"
	 viewBox="0 0 1301.2 252.1" style="enable-background:new 0 0 1301.2 252.1;" xml:space="preserve">
<style type="text/css">
	.st0{fill:#4DAAE0;}
	.st1{fill:#F6F6F6;}
</style>
<g>
	<g>
		<path class="st0" d="M321.6,190.5c-8.1,0-15.2-1.7-21.5-5s-11.5-7.7-15.8-13.2s-7.6-11.8-9.9-18.9c-2.3-7.1-3.4-14.4-3.4-22
			c0-6.4,0.9-12.8,2.7-19.3c1.8-6.5,4.5-12.8,7.9-18.9s7.6-11.7,12.5-17s10.4-9.9,16.4-13.8c6.1-3.9,12.6-7,19.6-9.3
			s14.5-3.4,22.3-3.4c12.2,0,22.2,2.8,30,8.4c7.7,5.6,12.8,12.9,15.1,21.9l-23.6,14.3c-0.8-3.9-2.1-7.2-3.9-9.9
			c-1.8-2.7-4-4.8-6.5-6.3c-2.5-1.6-5.3-2.7-8.2-3.4c-2.9-0.7-5.8-1.1-8.7-1.1c-7.3,0-13.9,1.8-19.9,5.3s-11.1,8-15.2,13.5
			c-4.2,5.5-7.4,11.5-9.7,18.2c-2.3,6.6-3.4,13.1-3.4,19.3c0,5,0.6,9.6,2,14.1c1.3,4.4,3.2,8.3,5.7,11.7s5.5,6.1,9.1,8
			c3.6,2,7.7,2.9,12.4,2.9c2.9,0,6-0.4,9.3-1.2s6.6-2,9.8-3.7c3.2-1.7,6.3-3.9,9.2-6.5c2.9-2.7,5.6-5.9,7.9-9.7l19.3,12.7
			c-3.1,5.2-7.1,9.8-11.8,13.8c-4.8,4-9.9,7.3-15.4,10.1c-5.5,2.7-11.3,4.8-17.2,6.3C332.6,189.8,326.9,190.5,321.6,190.5z"/>
		<path class="st0" d="M415.7,190.5h-27.9l22.3-148.8H438L415.7,190.5z"/>
		<path class="st0" d="M432.4,137.9c2.4-16,8.5-28.7,18.5-38.3c10-9.5,22.6-14.3,37.9-14.3c14.7,0,25.8,5,33.2,14.9
			s10,22.5,7.8,37.7l-0.3,2c-2.5,16.1-8.7,28.9-18.6,38.3c-9.9,9.5-22.6,14.2-38,14.2c-14.7,0-25.8-4.9-33.2-14.8
			c-7.4-9.9-10-22.5-7.6-37.7L432.4,137.9z M459.9,139.9c-1.5,9.7-1,17.4,1.4,22.9c2.5,5.5,7.4,8.3,14.8,8.3
			c6.9,0,12.5-2.9,16.9-8.7s7.3-13.3,8.7-22.5l0.3-2c1.3-9.5,0.8-17-1.7-22.7c-2.4-5.6-7.3-8.4-14.6-8.4c-6.9,0-12.6,2.9-17,8.8
			s-7.2,13.3-8.5,22.3L459.9,139.9z"/>
		<path class="st0" d="M594.8,177.7c-4.9,5.1-8.6,7.7-13.9,10.5c-5.3,2.9-11.3,4.3-17.8,4.3c-10.5,0-18.3-3.7-23.6-11.2
			c-5.2-7.4-6.7-18.9-4.4-34.2l9-59.8h27.8l-9,60c-1.4,9.3-1.1,15.6,0.8,18.8c1.9,3.2,5.5,4.8,10.7,4.8c4.3,0,8.2-0.8,11.7-2.3
			s6.4-3.7,8.9-6.6l11.2-74.7h27.9l-15.5,103.2l-25.1-0.7L594.8,177.7z"/>
		<path class="st0" d="M633.1,139.7c2.5-16.9,7.9-30.1,16.4-39.8c8.4-9.7,19.1-14.5,32-14.5c5,0,9.4,1.2,13.2,3.5s7,5.6,9.6,10
			l8.6-57.1h27.9l-22.3,148.8h-25.4l1.2-12.7c-3.9,4.8-8.3,8.4-13.2,10.9c-4.8,2.5-10.1,3.8-15.8,3.8c-12.1,0-21.2-4.7-27-14.1
			c-5.9-9.4-7.7-21.6-5.4-36.6L633.1,139.7z M660.6,141.7c-1.5,9.3-1,16.5,1.2,21.6c2.3,5,6.9,7.5,13.8,7.5c3.9,0,7.6-0.8,10.8-2.5
			c3.3-1.7,6.1-4.1,8.4-7.3l6.6-43.7c-1.4-3.2-3.5-5.8-6.2-7.6c-2.7-1.8-6-2.7-10-2.7c-6.5,0-11.8,3.1-16.1,9.2
			c-4.2,6.1-7,14-8.4,23.5L660.6,141.7z"/>
	</g>
	<g>
		<path class="st0" d="M201.6,66.2c-9.2-15.4-26.6-25.1-45.3-25.1c-9.3,0-18.3,2.3-26.2,6.7c-7.6-3.3-16-5.1-24.4-5.1
			c-24.2,0-46.2,14.7-55.9,36.8c-17,10-27.5,28.1-27.5,48c0,30.7,24.9,55.6,55.6,55.6c2.2,0,4.4-0.1,6.5-0.4
			c8.5,4.9,18.1,7.5,27.9,7.5c8.7,0,17.3-2.1,25-6c7.5,3.9,15.8,6,24.2,6c0.5,0,1,0,1.5,0c13.7-0.4,26.7-6.2,36.1-16
			c27.2-3.2,48.1-26.4,48.1-54.2C247.5,93.2,227.7,70.4,201.6,66.2z M195.6,166.8c-8.2,9.6-19.9,15.3-32.7,15.7c-0.4,0-0.9,0-1.3,0
			c-8.6,0-17-2.5-24.2-7.1c-7.5,4.6-16.2,7.1-25.1,7.1c-9.5,0-18.5-2.7-26.3-7.9c-2.7,0.5-5.5,0.7-8.2,0.7
			c-26.4,0-47.8-21.5-47.8-47.8c0-18,10-34.3,25.9-42.5c7.8-20.4,27.8-34.5,49.8-34.5c8.8,0,17.2,2.1,24.9,6.2
			c7.5-5.1,16.4-7.8,25.7-7.8c17.6,0,33.2,9.7,40.4,24.5c24.1,1.9,43.1,22.1,43.1,46.6C239.7,145,220.2,165.4,195.6,166.8z"/>
		<path class="st0" d="M192.9,81.1c-0.5,0-1,0-1.6,0c-4.6-14.1-18.6-24.4-35.1-24.4c-9.8,0-18.6,3.6-25.2,9.4
			c-7.4-5-16.1-7.8-25.4-7.8c-20.2,0-37.7,13.6-43.4,32.3c-14.3,6.1-24.4,20.3-24.4,36.9c0,22.1,17.9,40,40,40c3.4,0,6.8-0.4,10-1.2
			c6.8,5.3,15.3,8.4,24.5,8.4c9.6,0,18.4-3.4,25.3-9c6.7,5.8,15.1,9,24,9c0.4,0,0.7,0,1.1,0c11.4-0.3,21.8-5.8,28.6-15l0.4-0.6h1.1
			c21.5,0,39-17.5,39-39C231.9,98.6,214.4,81.1,192.9,81.1z M160.8,141.8c0,3.5-10.7,6.5-25,6.5s-25-3-25-6.5v-13.1
			c0,3.5,10.7,6.5,25,6.5s25-3.1,25-6.5V141.8z M160.8,124.4c0,3.5-10.7,6.5-25,6.5s-25-3.1-25-6.5v-13.1c0,3.5,10.7,6.5,25,6.5
			s25-3,25-6.5V124.4z M160.8,107c0,3.5-10.7,6.5-25,6.5s-25-3.1-25-6.5V94c0,3.5,10.7,6.5,25,6.5s25-3,25-6.5V107z M134.9,96.1
			c-14.4,0-26.1-2.9-26.1-6.5s11.7-6.5,26.1-6.5S161,86,161,89.6S149.3,96.1,134.9,96.1z"/>
	</g>
</g>
<g>
	<path class="st1" d="M784.6,41.8l-22.2,148.7H728l22.2-148.7C750.2,41.8,784.6,41.8,784.6,41.8z"/>
	<path class="st1" d="M918.6,78.3l-95.1,165.3h-37l34.3-57.1L791.4,78.3h38.4l15.4,70.1l36.2-70.1C881.4,78.3,918.6,78.3,918.6,78.3
		z"/>
	<path class="st1" d="M1029.1,89.9c6.6,8.5,8.7,20.2,6.5,35.1l-9.8,65.5h-34.2l9.1-60.9c1.1-7.5,0-13.3-3.2-17.5
		c-3.3-4.1-8.2-6.2-14.7-6.2c-6.6,0-12.1,2.1-16.6,6.2c-4.5,4.2-7.3,10-8.4,17.5l-9.1,60.9h-34.4l16.8-112.1h34.4l-2.2,14.9
		c4.2-5,9.5-8.9,15.8-11.8s13.2-4.3,20.5-4.3C1012.7,77.1,1022.5,81.4,1029.1,89.9z"/>
	<path class="st1" d="M1062.9,103.9c6.1-8.7,13.7-15.4,22.9-20.1c9.2-4.7,19.3-7,30.3-7c14.1,0,25.3,3.7,33.6,11.1
		c8.3,7.4,13,17.7,13.9,31.1H1127c-1.8-8.6-7.1-12.9-16-12.9c-6.3,0-11.7,2.4-16.2,7.3s-7.4,11.9-8.8,21c-1.4,9.1-0.5,16.1,2.5,21
		s7.7,7.3,14,7.3c8.8,0,15.4-4.3,19.8-12.9h36.6c-4.9,13.1-12.7,23.4-23.3,30.9c-10.6,7.5-22.9,11.3-36.8,11.3
		c-11,0-20.4-2.3-28.2-7c-7.8-4.7-13.4-11.4-16.9-20.1c-3.5-8.7-4.3-18.9-2.6-30.5C1053,122.7,1056.9,112.6,1062.9,103.9z"/>
	<path class="st1" d="M1191.2,187c-7.1-3.3-12.5-7.9-16-13.8c-3.5-5.8-5.1-12.4-4.5-19.6h34c-0.2,3.9,1.2,7,4,9.4
		c2.9,2.4,6.6,3.6,11.3,3.6c4.3,0,7.7-0.8,10.3-2.5c2.6-1.7,4.1-3.8,4.5-6.5c0.5-3.2-0.8-5.6-4-7.1c-3.1-1.5-8.3-3.2-15.5-5.1
		c-7.8-1.9-14.2-3.8-19.2-5.9c-5-2.1-9.2-5.4-12.4-9.8c-3.2-4.5-4.2-10.5-3.1-18.2c1-6.4,3.6-12.3,8-17.6
		c4.3-5.3,10.2-9.5,17.6-12.6s15.8-4.6,25.3-4.6c14.1,0,24.6,3.5,31.7,10.4c7.1,7,10.3,16.2,9.8,27.7h-31.7c0-3.9-1.2-7-3.7-9.2
		c-2.5-2.3-6.2-3.4-10.8-3.4c-4,0-7.2,0.8-9.6,2.3s-3.8,3.7-4.2,6.3c-0.5,3.2,0.9,5.6,4,7.2c3.2,1.6,8.3,3.2,15.2,4.8
		c8,2.1,14.4,4.3,19.3,6.3c4.9,2.1,9,5.4,12.3,10s4.4,10.8,3.3,18.6c-1,6.6-3.7,12.4-8.2,17.6c-4.5,5.2-10.4,9.2-17.7,12.2
		c-7.3,2.9-15.6,4.4-24.7,4.4C1206.8,192.1,1198.4,190.4,1191.2,187z"/>
</g>
</svg>
